<svg xmlns="http://www.w3.org/2000/svg" width="1200" height="800" viewBox="0 0 1200 800">
  <defs>
    <linearGradient id="g" x1="0" y1="0" x2="1" y2="0">
      <stop offset="0" stop-color="#d9f4ff"/>
      <stop offset="0.55" stop-color="#fff2c7"/>
      <stop offset="1" stop-color="#ffd7e8"/>
    </linearGradient>
    <filter id="b" x="-20%" y="-20%" width="140%" height="140%">
      <feGaussianBlur stdDeviation="18"/>
    </filter>
  </defs>
  <rect width="1200" height="800" fill="url(#g)"/>
  <g filter="url(#b)" opacity="0.6" fill="#fff">
    <circle cx="260" cy="520" r="210"/>
    <circle cx="700" cy="420" r="180"/>
    <circle cx="980" cy="520" r="210"/>
  </g>
  <g fill="#ff5fa2" opacity="0.22">
    <path d="M300 260c-18-31-64-24-70 10-6 34 38 62 70 86 32-24 76-52 70-86-6-34-52-41-70-10z"/>
    <path d="M900 300c-18-31-64-24-70 10-6 34 38 62 70 86 32-24 76-52 70-86-6-34-52-41-70-10z"/>
  </g>
</svg>
