<svg xmlns="http://www.w3.org/2000/svg" width="1080" height="1920" viewBox="0 0 1080 1920">
  <defs>
    <linearGradient id="g1" x1="0" y1="0" x2="1" y2="1">
      <stop offset="0" stop-color="#fff2c2"/>
      <stop offset="0.55" stop-color="#ffd3e6"/>
      <stop offset="1" stop-color="#cfe9ff"/>
    </linearGradient>
    <radialGradient id="glow" cx="30%" cy="20%" r="65%">
      <stop offset="0" stop-color="#ffffff" stop-opacity="0.9"/>
      <stop offset="1" stop-color="#ffffff" stop-opacity="0"/>
    </radialGradient>
    <filter id="soft" x="-20%" y="-20%" width="140%" height="140%">
      <feGaussianBlur stdDeviation="18"/>
    </filter>
  </defs>

  <rect width="1080" height="1920" fill="url(#g1)"/>
  <rect width="1080" height="1920" fill="url(#glow)" opacity="0.55"/>

  <!-- soft bokeh circles (romantic placeholder) -->
  <g filter="url(#soft)" opacity="0.55">
    <circle cx="200" cy="360" r="90" fill="#ffffff"/>
    <circle cx="860" cy="420" r="120" fill="#ffffff"/>
    <circle cx="540" cy="780" r="160" fill="#ffffff"/>
    <circle cx="260" cy="1180" r="140" fill="#ffffff"/>
    <circle cx="820" cy="1320" r="110" fill="#ffffff"/>
    <circle cx="520" cy="1620" r="150" fill="#ffffff"/>
  </g>

  <!-- tiny hearts -->
  <g fill="#ff6fa5" opacity="0.22">
    <path d="M164 586c-18-31-64-24-70 10-6 34 38 62 70 86 32-24 76-52 70-86-6-34-52-41-70-10z"/>
    <path d="M852 966c-18-31-64-24-70 10-6 34 38 62 70 86 32-24 76-52 70-86-6-34-52-41-70-10z"/>
    <path d="M516 360c-18-31-64-24-70 10-6 34 38 62 70 86 32-24 76-52 70-86-6-34-52-41-70-10z"/>
    <path d="M340 1500c-18-31-64-24-70 10-6 34 38 62 70 86 32-24 76-52 70-86-6-34-52-41-70-10z"/>
  </g>
</svg>
