<svg xmlns="http://www.w3.org/2000/svg" width="1200" height="800" viewBox="0 0 1200 800">
  <defs>
    <linearGradient id="g" x1="0" y1="0" x2="1" y2="1">
      <stop offset="0" stop-color="#fff2c7"/>
      <stop offset="0.55" stop-color="#d9f4ff"/>
      <stop offset="1" stop-color="#ffd3e6"/>
    </linearGradient>
    <filter id="b" x="-20%" y="-20%" width="140%" height="140%">
      <feGaussianBlur stdDeviation="16"/>
    </filter>
  </defs>
  <rect width="1200" height="800" fill="url(#g)"/>
  <g filter="url(#b)" opacity="0.55" fill="#fff">
    <circle cx="360" cy="260" r="160"/>
    <circle cx="860" cy="280" r="190"/>
    <circle cx="600" cy="560" r="240"/>
  </g>
  <g fill="#ff6fa5" opacity="0.25">
    <path d="M600 300c-26 0-48 22-48 48 0 28 24 44 48 64 24-20 48-36 48-64 0-26-22-48-48-48z"/>
    <path d="M440 380c-18-31-64-24-70 10-6 34 38 62 70 86 32-24 76-52 70-86-6-34-52-41-70-10z"/>
    <path d="M760 380c-18-31-64-24-70 10-6 34 38 62 70 86 32-24 76-52 70-86-6-34-52-41-70-10z"/>
  </g>
</svg>
